<?xml version="1.0" encoding="UTF-8"?>
<svg id="Layer_1" data-name="Layer 1" xmlns="http://www.w3.org/2000/svg" viewBox="0 0 427.65 427.65">
  <defs>
    <style>
      .cls-1 {
        fill: #293f72;
      }

      .cls-2 {
        fill: #008478;
      }

      .cls-3 {
        fill: #100f1a;
      }

      .cls-4 {
        fill: #160c0d;
      }

      .cls-5 {
        letter-spacing: 0em;
      }

      .cls-6 {
        font-family: Mandalore, Mandalore;
        font-size: 58.87px;
        stroke: #231f20;
        stroke-miterlimit: 10;
      }

      .cls-6, .cls-7 {
        fill: #70c9c4;
      }

      .cls-8 {
        fill: #3d5444;
      }

      .cls-9 {
        fill: #0f6065;
      }

      .cls-10 {
        letter-spacing: -.07em;
      }

      .cls-11 {
        fill: #494949;
      }

      .cls-12 {
        fill: #74746c;
      }
    </style>
  </defs>
  <g>
    <path class="cls-2" d="M118.77,327.87c6.09.88,12.13,1.77,18.03,2.82,2.74.49,5.61,1.19,8.54,1.98-2.93-.79-5.8-1.49-8.54-1.98-5.9-1.05-11.94-1.94-18.03-2.82Z"/>
    <path class="cls-2" d="M117.44,423.37c-.16.53-.31,1.03-.42,1.51.11-.48.26-.98.42-1.51Z"/>
    <path class="cls-2" d="M45.22,308.57c2.32,1.26,4.69,2.19,6.99,2.59-.01.2-.02.37-.02.5,0-.14,0-.3.02-.5-2.3-.39-4.67-1.33-6.99-2.59Z"/>
    <path class="cls-2" d="M110.61,402.71c0,.19,0,.36-.03.53.02-.17.03-.34.03-.53Z"/>
    <path class="cls-2" d="M129.98,280.81c-.69.02-1.38-.01-2.06-.08.68.06,1.37.09,2.06.08Z"/>
    <path class="cls-2" d="M188.57,342.85c-.18-.89-.62-1.6-1.25-2.16.63.56,1.07,1.27,1.25,2.16.45,2.24.48,4.16.15,5.79.33-1.63.3-3.56-.15-5.79Z"/>
    <path class="cls-2" d="M110.08,404.51c-.16.23-.36.44-.57.62.21-.18.41-.39.57-.62Z"/>
    <path class="cls-2" d="M110.31,404.14c.13-.26.23-.56.27-.89-.05.33-.14.63-.27.89Z"/>
    <path class="cls-2" d="M118.97,419.32c-.35.78-.68,1.61-.98,2.43.3-.82.64-1.64.98-2.43Z"/>
    <path class="cls-2" d="M125.09,371.39c.43.31.96.72,1.48,1.13-.52-.41-1.05-.82-1.48-1.13Z"/>
    <path class="cls-2" d="M95.87,373.7c.06-.75.18-1.5.36-2.24-.18.74-.3,1.49-.36,2.24Z"/>
    <path class="cls-2" d="M95.83,374.81c0-.37,0-.74.04-1.11-.03.37-.04.74-.04,1.11Z"/>
    <path class="cls-2" d="M52.41,312.23c.1.02.22,0,.38-.02-.16.02-.28.04-.38.02Z"/>
    <path class="cls-2" d="M52.19,311.66c0,.41.08.54.22.57-.14-.03-.22-.16-.22-.57Z"/>
    <path class="cls-2" d="M52.79,312.21c.16-.02.34-.02.56.03.54.13,1.22.37,1.99.67-.76-.3-1.44-.54-1.99-.67-.21-.05-.4-.04-.56-.03Z"/>
    <path class="cls-2" d="M123.85,389.61c1.15.57,2.48,1.52,3.44,2.42-.96-.89-2.29-1.85-3.44-2.42Z"/>
    <path class="cls-2" d="M13.66,289.83c-.15-.23-.37-.38-.71-.41.34.04.56.19.71.41Z"/>
    <path class="cls-2" d="M184.92,354.08c.66-.4,1.25-.87,1.76-1.4-.51.53-1.1,1-1.76,1.4Z"/>
    <path class="cls-2" d="M179.75,338.68c-.46-.02-.92-.02-1.38-.03.46,0,.92,0,1.38.03Z"/>
    <path class="cls-2" d="M154.23,335.18c-2.98-.84-5.96-1.72-8.89-2.51,2.93.79,5.91,1.67,8.89,2.51Z"/>
    <path class="cls-2" d="M386.71,54.29c.21.53.48.98.78,1.38-.3-.39-.57-.85-.78-1.38-1.12-2.78.15-3.8-.37-5.85.52,2.05-.75,3.08.37,5.85Z"/>
    <path class="cls-2" d="M181.8,338.81c-.45-.05-.9-.08-1.36-.11.46.02.91.06,1.36.11Z"/>
    <path class="cls-2" d="M390.72,58.17c-.04-.08-.24-.19-.54-.35.3.16.5.27.54.35Z"/>
    <path class="cls-2" d="M361.13,244.92c-.62.33-1.23.65-1.84.96.6-.31,1.22-.63,1.84-.96Z"/>
    <path class="cls-2" d="M367.59,241.15c-1.18.76-2.42,1.5-3.66,2.22,1.24-.72,2.48-1.46,3.66-2.22Z"/>
    <path class="cls-2" d="M359.3,245.89c-.6.31-1.2.6-1.78.88.58-.28,1.17-.58,1.78-.88Z"/>
    <path class="cls-2" d="M370.15,239.43c-.54.38-1.1.76-1.68,1.15.58-.38,1.14-.76,1.68-1.15Z"/>
    <path class="cls-2" d="M355.83,247.56c-1.09.5-2.1.93-2.99,1.27.89-.34,1.9-.77,2.99-1.27Z"/>
    <path class="cls-2" d="M311.12,323.66c-.11-.18-.19-.36-.24-.53.05.16.13.34.24.53Z"/>
    <path class="cls-2" d="M311.76,324.5c-.17-.18-.33-.37-.46-.56.13.19.29.38.46.56Z"/>
    <path class="cls-2" d="M405.23,0H22.42C10.04,0,0,10.04,0,22.42v382.81c0,12.38,10.04,22.42,22.42,22.42h10.92c.56-8.62,1.46-17.29,2.79-26.06,2.94-19.36,7.19-38.7,13.77-56.87.9-2.49,1.19-6.34,2.13-8.28.64-1.33,4.38-3.52,1.06-5.37-4.44-2.47-11.69-3.44-16.36-6.15-10.4-6.02-22.36-18.23-24.34-30.01-.06-.35-.01-.73-.06-1.08h0c-.22-1.78-.29-2.49-.23-4.33h0c.1-2.58,1.68-10.88,3.09-12.64,1.44-1.79,2.56-2.45,4.37-5.22.85-1.3,2.27-.81,2.18-3.58-.08-2.73-2.75-3.18-3.97-4.98-2.36-3.47-3.55-10.33-2.78-14.29,1.4-7.29,7.16-16.26,12.29-21.23.69-.67,2-.76,2.58-1.67.1-.54-3.43-3.35-3.81-3.45-1.34-.35-3.76,2.49-6.46-.56-.16-.18-2.45-3.99-2.52-4.22-.22-.74.38-1.71.1-2.89-.45-1.93-3.13-3.97-3.28-6.86-.02-.32,2.06-5.36,2.35-5.77.9-1.3,2.44-1.63,3.21-3.63,1.4-3.65.48-5.17.45-8.31-.06-5.45,1.75-13.42,2.15-19.05,1.15-15.98,1.35-32.03,2.82-47.73.61-6.48-.2-18.82,1.92-23.89.34-.82,2.7-2.45.06-2.01-2.19.37-4.11,1.69-6.61,1.95-3.55.37-6.59.62-7.47-3.56-.48-2.29,2.02-6.27,3.64-7.8,1.45-1.36,10.44-6.16,12.4-6.74,9.23-2.7,18.13-7.07,27-10.86,12.24-5.23,24.06-10.91,36.64-15.59,14-5.21,28.57-10.37,42.23-15.93,4.25-1.73,7.96-3.16,12.19-4.87,5.52-2.23,10.49-4.8,16-6.91,7.24-2.77,13.85-5.97,21.63-7.73,2.65-.6,6.86-.49,9.43-1.23,2.85-.82,1.75-.36,4.96-.47,4.85-.17,9.83-.81,14.53-1.11,44.72-2.85,91.79-4.25,136.18,1.36,6.08.77,12.24,1.79,18.21,1.86.22,0,1.9,1.78,3.7,2.44,9.23,3.4,19.19,5.53,25.32,14.4.62.89,1.78,4.35,2.31,4.7.48.32,2.01.44,3.37,1.3.81.52,4.05,3.39,4.28,4.09.32.97.22,5.75.48,7.45,3.92,25.57,1.86,45.85-.09,70.92-1.19,15.36-.85,31.38-1.92,47.04-1.47,21.59-2.31,43.98-11.95,62.72-.86,1.66-3.62,6.84-4.56,8.01-1.57,1.95-3.89,2.35-5.68,3.86-10.01,8.39-15.01,11.43-27.67,15.89-9.36,3.29-16.94,4.54-26.55,6.14-1.03.17-5.5.13-5.53.9.73,2.31,3.72,3.85,3.47,6.38-.09.86-1,1.53-.84,2.79.12.97,1.25,1.93,1.15,2.67-.09.64-1.3,1.31-1.68,2.01-.88,1.61-1.42,3.41-2.31,5-.86,1.54-5.26,7.16-4.27,8.45.23.3,1.64.07,2.18.98,1.62,2.75,1.24,9.62.33,12.55-.79,2.53-2.79,4.89-4.21,6.55-.55.65-4.27,5.21-4.59,5.41.31,1.13.9,2.12,1.25,3.25.05.17-.03.38.03.54,1.44-.41,1.34,1.48,1.77,2.71.9,2.62,1.84,3.01,2.27,4.17.32.87.5,4.66.92,5.03.14.12.95-.12,1.08,0,.32.29-.49,1.02-.48,1.08.02.22,1.14,3.64,1.28,3.79.4.42.37-.94,1.14,1.08.55,1.44.63,4.15.77,4.33.28.37.76-.96,1.14,1.08.32,1.76.68,5.11,1.96,6.5.08.09.79-.17,1.04.07.45.42-.44.96-.44,1.02h0c-.01.68.03,1.48.11,2.17,2.13-.23.57.88.6,1.08-.27-.07-.4-.23-.48-.42.08.2.21.35.48.42.96,5.91,8.16,23.17,11,29.24,4.74,10.14,11.6,19.06,17.37,28.52,1.91,3.13,3.75,6.3,5.54,9.47h44.32c12.38,0,22.42-10.04,22.42-22.42V22.42c0-12.38-10.04-22.42-22.42-22.42Z"/>
    <path class="cls-2" d="M310.88,323.14c-.02-.08-.04-.16-.04-.23,0,.07.02.15.04.23Z"/>
    <path class="cls-2" d="M320.8,344.12c-.15-.14-.15-.45-.11-1.02-.04.57-.04.88.11,1.02Z"/>
    <path class="cls-2" d="M182.72,355.09c.8-.27,1.54-.61,2.2-1-.66.4-1.4.73-2.2,1Z"/>
    <path class="cls-2" d="M147.74,262.52c.17-.04.42-.09.85-.09-.44,0-.68.05-.85.09Z"/>
    <path class="cls-2" d="M12.57,289.42c.14-.01.27-.01.38,0-.11-.01-.24-.01-.38,0Z"/>
    <path class="cls-2" d="M180.11,355.72c.93-.15,1.8-.36,2.61-.63-.8.27-1.67.48-2.61.63Z"/>
    <path class="cls-2" d="M13.66,289.83c.1.15.16.34.2.55-.04-.21-.1-.4-.2-.55Z"/>
    <path class="cls-2" d="M389.39,57.37c.3.19.58.34.8.45-.22-.12-.5-.27-.8-.45Z"/>
    <path class="cls-2" d="M147.74,262.52c-.13.03-.21.06-.31.08.09-.01.18-.04.31-.08Z"/>
    <path class="cls-2" d="M124.17,280.02c.63.18,1.27.33,1.91.45-.64-.12-1.28-.27-1.91-.45Z"/>
    <path class="cls-2" d="M32.65,248.04c.24-.41.5-.84.76-1.27-.26.43-.52.86-.76,1.27Z"/>
    <path class="cls-2" d="M35.98,301.96c-.8-.7-1.58-1.4-2.32-2.09.74.69,1.51,1.4,2.32,2.09Z"/>
    <path class="cls-2" d="M198.92,292.97c-.74-1.75-1.46-3.51-2.22-5.26.76,1.75,1.48,3.51,2.22,5.26Z"/>
    <path class="cls-2" d="M158.68,262.68c-3.21-.05-6.41-.11-9.57-.24,3.16.13,6.36.19,9.57.24Z"/>
    <path class="cls-2" d="M41.1,306c-1.34-.94-2.65-1.96-3.9-3,1.25,1.04,2.55,2.05,3.9,3Z"/>
    <path class="cls-2" d="M60.47,315.09c-.88-.36-1.78-.76-2.66-1.14.88.38,1.78.77,2.66,1.14Z"/>
    <path class="cls-2" d="M43.83,307.77c-.92-.55-1.83-1.15-2.73-1.78.9.63,1.81,1.23,2.73,1.78Z"/>
    <path class="cls-2" d="M57.82,313.95c-.58-.25-1.15-.5-1.7-.72.54.22,1.11.47,1.7.72Z"/>
    <path class="cls-2" d="M118.77,327.87c-2.44-.35-4.88-.7-7.33-1.07,2.45.36,4.89.71,7.33,1.07Z"/>
    <path class="cls-2" d="M388.43,56.67c.22.19.44.35.65.49-.21-.14-.43-.31-.65-.49Z"/>
    <path class="cls-3" d="M117.02,424.88c.11-.48.26-.98.42-1.51.16-.53.35-1.07.55-1.61.3-.82.64-1.64.98-2.43.69-1.57,1.42-2.97,2.01-3.81.25-.36.54-.72.87-1.08s.67-.72,1.04-1.07c.37-.36.76-.71,1.16-1.07.6-.53,1.21-1.07,1.81-1.6.4-.36.8-.71,1.18-1.07.19-.18.37-.36.55-.54.72-.72,1.35-1.44,1.82-2.17.43-.68.75-1.45.97-2.29.07-.28.13-.57.18-.86.15-.88.2-1.8.17-2.74-.1-2.81-.98-5.74-2.32-7.77-.23-.36-.63-.78-1.11-1.23-.96-.89-2.29-1.85-3.44-2.42-.58-.28-1.11-.47-1.54-.5-.18-2.32,3.15-2.26,4.03-2.85.01,0,.03-.03.06-.06.05-.07.13-.18.23-.33.15-.22.34-.52.55-.85.14-.22.29-.45.43-.69.58-.95,1.16-1.92,1.24-2.12,1.47-3.64-.49-3.99-.67-5.8-.06-.68.53-1.5.42-2.11-.02-.14-1.01-.98-2.05-1.8-.52-.41-1.05-.82-1.48-1.13-.43-.31-.76-.53-.87-.56-.98-.28-2.15.06-3.02-.24-5.3-1.81-12.44-5.4-17.82-5.78-3.82-.27-6.25,2.98-7.16,6.66-.18.74-.3,1.49-.36,2.24-.03.37-.04.74-.04,1.11,0,1.1.16,2.16.46,3.09.05.15.24.38.53.66,1.25,1.19,4.3,3.28,5.07,3.85.05,2-2,1.92-2.34,3.84-.26,1.49.06,7.45.59,8.85.38,1,7.06,5.87,8.38,6.59.15.08.31.15.48.2.33.11.69.16,1.04.19.17.01.35.02.51.03.03.21.05.41.05.6,0,.19,0,.36-.03.53-.05.33-.14.63-.27.89-.07.13-.14.26-.22.37-.16.23-.36.44-.57.62-.95.83-2.26,1.23-2.75,1.87-.53.68-3.61,6.2-3.87,7.12-1.18,4.23-1.08,8.97-1.03,13.53h14.84c0-.3.01-.6.02-.9.02-.52.13-1.16.3-1.88Z"/>
    <path class="cls-3" d="M338.01,389.66c-2.84-6.07-10.04-23.33-11-29.24-.27-.07-.4-.23-.48-.42-.08-.2-.09-.43-.12-.66-.08-.68-.13-1.49-.11-2.17h0s0,0,0,0l-.6-1.08c-1.29-1.38-1.64-4.74-1.96-6.5-.43.05-.71.07-.88.02-.12-.04-.19-.1-.23-.22-.06-.17-.05-.45-.03-.88-.14-.18-.22-2.89-.77-4.33-.57.07-.87.08-1.02-.06-.15-.14-.15-.45-.11-1.02-.14-.15-1.26-3.57-1.28-3.79l-.6-1.08c-.42-.37-.6-4.16-.92-5.03-.43-1.16-1.37-1.55-2.27-4.17-1.45.41-1.33-1.48-1.77-2.71-.06-.16.02-.37-.03-.54-.5.06-1.39-.55-2.06-1.27-.17-.18-.33-.37-.46-.56-.07-.09-.13-.19-.18-.28-.11-.18-.19-.36-.24-.53-.02-.08-.04-.16-.04-.23,0-.15.03-.28.11-.38.05-.07.26-.06.51-.04.42.04.96.13,1.11.03.31-.2,4.03-4.77,4.59-5.41,1.41-1.66,3.42-4.02,4.21-6.55.91-2.93,1.29-9.8-.33-12.55-.54-.91-1.95-.68-2.18-.98-.99-1.3,3.41-6.91,4.27-8.45.89-1.6,1.43-3.39,2.31-5,.38-.69,1.59-1.37,1.68-2.01.1-.73-1.03-1.7-1.15-2.67-.16-1.26.76-1.93.84-2.79.25-2.53-2.73-4.07-3.47-6.38.03-.77,4.5-.73,5.53-.9,9.62-1.6,17.2-2.84,26.55-6.14,12.65-4.45,17.65-7.49,27.67-15.89,1.8-1.51,4.11-1.91,5.68-3.86.94-1.17,3.71-6.35,4.56-8.01,9.64-18.74,10.47-41.13,11.95-62.72,1.07-15.67.73-31.68,1.92-47.04,1.95-25.07,4.01-45.35.09-70.92-.26-1.7-.16-6.48-.48-7.45-.23-.7-3.47-3.57-4.28-4.09-1.35-.86-2.89-.98-3.37-1.3-.53-.36-1.69-3.81-2.31-4.7-6.14-8.87-16.09-11-25.32-14.4-1.8-.66-3.47-2.44-3.7-2.44-5.98-.07-12.13-1.09-18.21-1.86-44.39-5.61-91.46-4.2-136.18-1.36-4.71.3-9.68.93-14.53,1.11-3.21.11-2.1-.35-4.96.47-2.58.74-6.78.63-9.43,1.23-7.78,1.76-14.39,4.96-21.63,7.73-5.51,2.11-10.48,4.67-16,6.91-4.23,1.71-7.94,3.14-12.19,4.87-13.65,5.56-28.23,10.72-42.23,15.93-12.58,4.68-24.4,10.36-36.64,15.59-8.87,3.79-17.77,8.16-27,10.86-1.96.57-10.95,5.37-12.4,6.74-1.62,1.53-4.12,5.51-3.64,7.8.88,4.18,3.92,3.93,7.47,3.56,2.5-.26,4.42-1.58,6.61-1.95,2.64-.44.28,1.18-.06,2.01-2.12,5.07-1.32,17.41-1.92,23.89-1.47,15.7-1.68,31.75-2.82,47.73-.4,5.63-2.22,13.6-2.15,19.05.04,3.15.95,4.66-.45,8.31-.77,2-2.31,2.33-3.21,3.63-.29.41-2.36,5.45-2.35,5.77.15,2.89,2.82,4.93,3.28,6.86.28,1.18-.32,2.15-.1,2.89.07.23,2.36,4.04,2.52,4.22,2.7,3.05,5.13.21,6.46.56.38.1,3.91,2.91,3.81,3.45-.58.91-1.89,1-2.58,1.67-5.14,4.98-10.89,13.95-12.29,21.23-.76,3.97.42,10.82,2.78,14.29,1.22,1.8,3.89,2.25,3.97,4.98.09,2.77-1.33,2.28-2.18,3.58-1.81,2.77-2.94,3.43-4.37,5.22-1.41,1.76-3,10.06-3.09,12.64.17-.04.33-.07.47-.08s.27-.01.38,0c.34.04.56.19.71.41.1.15.16.34.2.55.17.95-.13,2.39.1,3.46h-1.62c.04.35,0,.73.06,1.08,1.98,11.78,13.94,23.99,24.34,30.01,4.67,2.7,11.93,3.67,16.36,6.15,3.32,1.85-.41,4.05-1.06,5.37-.94,1.94-1.23,5.79-2.13,8.28-6.58,18.17-10.84,37.51-13.77,56.87-1.33,8.77-2.23,17.44-2.79,26.06h15.25c-.04-1.34-.03-2.65.05-3.89,1.29-19.75,6.22-42.18,10.88-61.16.77-3.15,1.76-6.14,2.79-9.05.68-1.94,1.38-3.85,2.04-5.75.66-1.9,1.28-3.79,1.81-5.69.26-.95.51-1.91.72-2.87.27-1.23.28-2.46.15-3.72,5.84.82,11.59,3.77,17.44,4.72,16.36,2.68,33.02,4.49,49.38,7.86,6.42,1.33,13.87,4.35,20.02,5.61,4.58.93,18.74,2.39,23.27,2.27,1.05-.03,2.05-.12,2.98-.26s1.8-.36,2.61-.63c.8-.27,1.54-.61,2.2-1s1.25-.87,1.76-1.4c1.02-1.07,1.71-2.41,2.05-4.04.33-1.63.3-3.56-.15-5.79-.18-.89-.62-1.6-1.25-2.16-1.26-1.12-3.29-1.65-5.53-1.88-.45-.05-.9-.08-1.36-.11-.23-.01-.46-.02-.69-.03-.46-.02-.92-.02-1.38-.03-2.75-.01-5.39.19-6.93.09-5.34-.36-11.25-1.88-17.21-3.56-2.98-.84-5.96-1.72-8.89-2.51-2.93-.79-5.8-1.49-8.54-1.98-5.9-1.05-11.94-1.94-18.03-2.82-2.44-.35-4.88-.7-7.33-1.07-11-1.63-22.04-3.44-32.56-6.4-3.62-1.02-5.97-2.08-9.58-2.83-.83-.17-1.73-.33-2.73-.46-.23-.03-.46-.03-.66-.09s-.36-.18-.45-.45c-1.06.06-2.96-.63-5.01-1.48-.88-.36-1.78-.76-2.66-1.14-.58-.25-1.15-.5-1.7-.72-.27-.11-.53-.22-.79-.32-.76-.3-1.44-.54-1.99-.67-.21-.05-.4-.04-.56-.03s-.28.04-.38.02c-.14-.03-.22-.16-.22-.57,0-.14,0-.3.02-.5-2.3-.39-4.67-1.33-6.99-2.59-.46-.25-.93-.52-1.39-.79-.92-.55-1.83-1.15-2.73-1.78-1.34-.94-2.65-1.96-3.9-3-.42-.35-.83-.69-1.23-1.04-.8-.7-1.58-1.4-2.32-2.09s-1.44-1.37-2.1-2.03c-.66-.66-3.68-5.9-3.68-6.42,0-.26.97-.19,1.06-.65.19-.95.25-1.69.33-2.38.06-.46.13-.9.27-1.36.21-.69.57-1.44,1.25-2.38,2.16-2.97,6.68-6.43,8.69-10.13,1.11-2.04,1.71-5.52,1.04-7.86-.75-2.6-5.07-9.66-6.96-11.91-1.15-1.36-2.76-.84-2.28-3.82.09-.53.65-1.63,1.37-2.87.24-.41.5-.84.76-1.27,1.06-1.71,2.22-3.42,2.76-4.1.62-.79,5.96-6.24,6.42-6.23,6.17,2.84,12.01,6.52,18.15,9.42,10.22,4.83,24.07,9.25,33.02,16.56,8.09,6.6,13.89,9.77,23.03,14.54.89.47,1.8.91,2.71,1.33.91.41,1.84.8,2.78,1.13.62.22,1.25.42,1.88.6.63.18,1.27.33,1.91.45.61.11,1.22.2,1.84.26.68.06,1.37.09,2.06.08.66-.02,1.32-.07,1.99-.16.85-.12,1.68-.4,2.49-.7,1.35-.51,2.68-1.1,4.06-1.23,9.08-.82,20.21-1.12,29.58-.38,1.73.14,3.54.37,5.27.6.22.31.42.64.62.98.39.68.73,1.42,1.06,2.19.32.76.62,1.55.92,2.34.45,1.18.89,2.35,1.39,3.42,3.44,7.32,6.46,15.72,10.44,22.69,3.4,5.97,7.95,11.29,11.73,16.74,1.28,1.85,4.87,8.9,5.73,9.71.19.18.68.13,1.01.19.11.02.2.05.27.11.27.25.45.57.64.88s.4.62.72.84c1.44,1,10.73,3.35,12.23,2.97.39-.1.26-.94.7-1.05,7.56-1.95,11.78-6.07,17.82-10.76,5.28-4.1,8.69-10.05,12.92-15.38,2.33-2.93,6.12-6.21,8.18-8.94,1.15-1.53,3.23-6.75,4.05-7.58.49-.49,1.7-.41,1.91-.77,1.96-3.32,4.4-7.58,6.34-11.2,1.79-3.33,4.01-7.64,3.92-11.45,4.02,0,8.15-.1,12.12-.57,2.8-.33,6-2.69,9.05-.51,1.64,1.18,4.2,3.05,6.07,4.03,1.22.64,2.44-.13,3.53,1.41,1.52,2.14,1.34,4.35-.64,5.78-.46.33-1.35,0-1.83.31-2.4,1.57-6.06,4.71-7.55,7.48-1.83,3.39-2.07,6.75.5,10.2,1.62,2.17,6.26,2.8,6.33,4.71.03.84-3.61,5.26-4.43,6.15-2.02,2.18-3.82,3.92-5.79,5.41-.99.74-2.02,1.43-3.15,2.07-1.13.64-2.35,1.25-3.72,1.84-3.54,1.52-2.14,1.82-3.4,3.84-.42.67-1.52.69-1.86,1.97-.32,1.23.1,2.44-.08,3.53-.18,1.15-1.03,1.65-.95,3.27.19,4.05,5.06,5.03,5.26,7-.61,9.4-.9,18.88-1.14,28.25-.06,2.48-.47,2.51-.47,2.68-.02.61,1.23,3.71,1.41,5.36.29,2.64-.31,4.77-.22,7.04.56,13.67,1.62,27.62,3.2,41.53h13.52c-.49-3.38-.98-6.77-1.47-10.17-.23-10.57-1.42-21.15-2.19-31.4-.96-12.79.07-25.45-.47-38.4-.08-1.8.37-4.25.27-5.92-.02-.32-2.48.14-2.32-2.7.09-1.56,1.75-1.72,2.57-2.72.58-.71,1.44-2.56,2.01-2.98.77-.56,1.75-.58,2.68-.54.28,2.53,1.71,4.64,2.38,6.92,7.7,26.12,14.88,52.29,29.2,76.04,2.44,4.04,4.98,7.97,7.51,11.88h19c-1.79-3.18-3.63-6.34-5.54-9.47-5.77-9.46-12.63-18.38-17.37-28.52ZM313.23,314.4c-1.23-1.73,2.43-2.33,2.59-2.16,1.2,1.25-1.48,2.54-2.59,2.16ZM256.05,280.88c-.98,1.6-3.58,4.66-3.72,4.95-.3.59.1,1.67-.28,2.56-.66,1.58-3.38,4.29-4.5,6.02-6.19,9.5-15.03,23.26-24.87,29.37-1.23.77-2.53,1.6-3.91.36-2.76-3.9-5.76-7.56-8.49-11.49-2.47-3.56-5.73-8.09-7.78-11.93-1.34-2.52-2.49-5.13-3.59-7.76-.74-1.75-1.46-3.51-2.22-5.26-1.13-2.62-2.35-5.2-3.8-7.68l66.27-5.69c.24,2.76-1.93,4.58-3.13,6.54ZM302.92,257.02c-18.01,2.69-35.16,1.45-52.89,3.14-14.22,1.35-32.21,2.13-47.51,2.77-11.46.48-22.87.3-34.01-.05-3.28-.1-6.56-.15-9.83-.2-3.21-.05-6.41-.11-9.57-.24-.05,0-.1,0-.16,0-.13,0-.25,0-.36,0-.44,0-.68.05-.85.09-.13.03-.21.06-.31.08-.24.03-.53-.08-1.75-.7-.44-.22.19,1-.98,1.13-2.85.33-6.15-.53-8.73-.48-1.94.04-5.96,1.21-7.5.99-.74-.1-12.1-5.96-13.61-6.82-7.35-4.2-13.85-11.15-21.44-15.07-15.49-8-32.91-12.91-47.19-23.31-1.57-2.66-12.36-10.32-12.96-12.05-.81-2.34,1.29-3.98,1.64-5.96.2-1.12-.06-2.36.06-3.54,2.69-26.57,3.72-53.63,4.91-80.73.27-6.06,1.75-12.23-.61-18.35-.5-1.3-2.35-1.68-2.2-3.1.2-.03.4-.08.62-.13.66-.15,1.4-.38,2.13-.64.97-.35,1.9-.76,2.55-1.16,3.61-2.22,7.9-4.34,12.24-6.35,2.6-1.21,5.21-2.37,7.7-3.5,1.66-.75,3.33-1.49,5-2.22,5.01-2.19,10.05-4.27,15.12-6.29,3.38-1.34,6.77-2.66,10.17-3.95,6.8-2.59,13.64-5.08,20.5-7.57,3.43-1.24,6.86-2.48,10.3-3.73,6.87-2.49,13.75-5.01,20.62-7.63,20.23-7.71,38.24-19.19,61.05-21.19,14.93-1.31,33.02-2.51,47.91-2.16,19.72.46,40.15,1.27,60.2,1.57,5.15.08,12.76-.88,17.31-.61,1.33.08,3.16,1.39,5.09,1.54,6.1.47,12.36.96,18.55,1.88,1.55.23,3.09.49,4.63.78.77.15,1.54.3,2.3.46,1.53.33,3.05.69,4.56,1.09,1.51.41,3,.85,4.48,1.35.74.25,1.48.51,2.21.78.5.19,1.1.41,1.77.68.45.17.92.37,1.42.57,2.71,1.12,5.87,2.62,7.18,4.09.24.27,3.57,5.83,3.66,6.18.52,2.05-.75,3.08.37,5.85.21.53.48.98.78,1.38.3.39.62.72.95,1,.22.19.44.35.65.49.11.07.21.14.31.2.3.19.58.34.8.45.3.16.5.27.54.35.38.76.67,3.72.84,5.79.06.69.1,1.28.13,1.66.39,4.88.68,9.49.82,14.01.15,4.53.16,8.97,0,13.53-.1,3.04-.28,6.12-.54,9.31-2.33,28.93-3.27,58.2-5.73,87.11-.17,2.01-.32,3.92-.47,5.76-.15,1.84-.3,3.6-.46,5.31-.08.86-.17,1.7-.26,2.53-.27,2.49-.59,4.88-1.01,7.24-1.12,6.28-2.96,12.33-6.52,19.4-.22.43-.32.9-.42,1.41-.03.17-.07.34-.1.51-.07.35-.16.71-.3,1.09s-.32.77-.59,1.17c-1.07,1.61-3.27,3.51-5.98,5.42-.54.38-1.1.76-1.68,1.15-.29.19-.58.38-.88.57-1.18.76-2.42,1.5-3.66,2.22-.93.54-1.87,1.06-2.8,1.56-.62.33-1.23.65-1.84.96-.6.31-1.2.6-1.78.88-.58.28-1.14.55-1.69.79-1.09.5-2.1.93-2.99,1.27-.44.17-.86.32-1.24.45-1.4.46-3.46.16-5.05.76-2.51.94-1.68,1.15-5.24,1.81-3.23.61-6.44,1.11-9.65,1.56-4.8.67-9.58,1.22-14.37,1.77-4.78.55-9.57,1.12-14.38,1.84Z"/>
    <path class="cls-4" d="M13.96,293.83c-.23-1.06.07-2.51-.1-3.46-.04-.21-.1-.4-.2-.55-.15-.23-.37-.38-.71-.41-.11-.01-.24-.01-.38,0s-.3.04-.47.08h0c-.07,1.84,0,2.55.23,4.33h1.62Z"/>
    <path class="cls-4" d="M12.57,289.42c-.14.01-.3.04-.47.08h0c.17-.04.33-.07.47-.08Z"/>
    <polygon class="cls-4" points="12.33 293.83 12.33 293.83 13.96 293.83 12.33 293.83"/>
    <path class="cls-3" d="M311.46,322.49c-.25-.02-.46-.03-.51.04-.08.1-.12.23-.11.38,0,.07.02.15.04.23.05.16.13.34.24.53.05.09.12.19.18.28.13.19.29.38.46.56.68.73,1.56,1.34,2.06,1.27-.35-1.13-.94-2.11-1.25-3.25-.15.1-.69,0-1.11-.03Z"/>
    <path class="cls-3" d="M311.46,322.49c-.25-.02-.46-.03-.51.04-.08.1-.12.23-.11.38,0-.15.03-.28.11-.38.05-.07.26-.06.51-.04Z"/>
    <path class="cls-3" d="M315.62,329.02c-.42-1.23-.33-3.12-1.77-2.71.44,1.23.31,3.12,1.77,2.71Z"/>
    <path class="cls-3" d="M319.89,338.23c-.13-.12-.94.12-1.08,0l.6,1.08c0-.06.8-.79.48-1.08Z"/>
    <path class="cls-3" d="M320.8,344.12c.15.14.46.13,1.02.06-.77-2.03-.74-.66-1.14-1.08-.04.57-.04.88.11,1.02Z"/>
    <path class="cls-3" d="M322.62,349.39c.04.12.11.18.23.22.18.05.45.03.88-.02-.38-2.04-.86-.72-1.14-1.08-.03.43-.03.71.03.88Z"/>
    <path class="cls-3" d="M322.62,349.39c.04.12.11.18.23.22-.12-.04-.19-.1-.23-.22Z"/>
    <path class="cls-3" d="M326.74,356.16c-.25-.23-.96.02-1.04-.07l.6,1.08c0-.06.89-.6.44-1.02Z"/>
    <polygon class="cls-3" points="326.3 357.17 325.7 356.09 326.3 357.17 326.3 357.17"/>
    <path class="cls-3" d="M327.01,360.42c-.03-.2,1.53-1.31-.6-1.08.03.23.04.46.12.66.08.2.21.35.48.42Z"/>
    <path class="cls-1" d="M102.89,414.12c.26-.92,3.35-6.44,3.87-7.12.49-.63,1.8-1.04,2.75-1.87.21-.18.41-.39.57-.62.08-.12.16-.24.22-.37.13-.26.23-.56.27-.89.02-.17.03-.34.03-.53,0-.19-.02-.39-.05-.6-.17,0-.34-.01-.51-.03-.35-.03-.71-.08-1.04-.19-.17-.05-.33-.12-.48-.2-1.32-.72-8-5.59-8.38-6.59-.53-1.4-.85-7.36-.59-8.85.34-1.92,2.39-1.84,2.34-3.84-.77-.58-3.81-2.66-5.07-3.85-.29-.28-.48-.5-.53-.66-.3-.93-.45-1.99-.46-3.09,0-.37,0-.74.04-1.11.06-.75.18-1.5.36-2.24.9-3.68,3.34-6.93,7.16-6.66,5.38.38,12.51,3.97,17.82,5.78.87.3,2.04-.04,3.02.24.11.03.44.25.87.56.43.31.96.72,1.48,1.13,1.04.82,2.02,1.66,2.05,1.8.11.6-.49,1.43-.42,2.11.17,1.8,2.14,2.16.67,5.8-.08.19-.66,1.17-1.24,2.12-.15.24-.29.47-.43.69-.21.33-.4.63-.55.85-.1.15-.18.26-.23.33-.03.03-.05.05-.06.06-.88.59-4.22.53-4.03,2.85.43.03.96.22,1.54.5,1.15.57,2.48,1.52,3.44,2.42.48.45.87.87,1.11,1.23,1.34,2.03,2.22,4.96,2.32,7.77.03.94-.02,1.86-.17,2.74-.05.29-.11.58-.18.86-.22.84-.54,1.62-.97,2.29-.46.73-1.1,1.45-1.82,2.17-.18.18-.36.36-.55.54-.38.36-.77.71-1.18,1.07-.6.53-1.22,1.07-1.81,1.6-.4.36-.79.71-1.16,1.07-.37.36-.72.71-1.04,1.07s-.61.72-.87,1.08c-.59.84-1.32,2.24-2.01,3.81-.35.78-.68,1.61-.98,2.43-.2.55-.39,1.09-.55,1.61-.16.53-.31,1.03-.42,1.51-.17.71-.28,1.36-.3,1.88-.01.3-.01.6-.02.9h71.93c.03-3.03.08-6.05.22-8.98.39-7.59,1.77-16.42,1.94-23.87.13-5.56-1.37-9.81.72-15.26.74-1.92,2.34-3.33,2.63-5.48,8.93-2.37,10.97,4.51,10.81,12.07-.28,13.74-1.35,27.63-2.31,41.52h36.88c-.44-11.47-.68-23.08.48-32.89.41-3.47,2.17-15.59,8.01-12.95,4.37,1.98,4.91,9.62,5.05,13.52.27,7.84.32,15.94.66,23.84.12,2.86.3,5.67.48,8.48h34.02c-1.58-13.91-2.64-27.86-3.2-41.53-.09-2.27.5-4.4.22-7.04-.18-1.64-1.43-4.75-1.41-5.36,0-.17.41-.2.47-2.68.24-9.37.53-18.85,1.14-28.25-.2-1.97-5.07-2.95-5.26-7-.08-1.63.76-2.12.95-3.27.17-1.09-.25-2.3.08-3.53.34-1.28,1.44-1.3,1.86-1.97,1.26-2.01-.15-2.31,3.4-3.84,1.37-.59,2.6-1.19,3.72-1.84,1.13-.64,2.16-1.32,3.15-2.07,1.97-1.49,3.76-3.23,5.79-5.41.82-.89,4.46-5.31,4.43-6.15-.07-1.91-4.71-2.53-6.33-4.71-2.57-3.45-2.33-6.82-.5-10.2,1.5-2.78,5.16-5.91,7.55-7.48.48-.31,1.37.02,1.83-.31,1.99-1.42,2.17-3.64.64-5.78-1.09-1.54-2.31-.77-3.53-1.41-1.87-.98-4.43-2.85-6.07-4.03-3.05-2.18-6.26.18-9.05.51-3.96.47-8.1.58-12.12.57.08,3.81-2.14,8.12-3.92,11.45-1.94,3.62-4.38,7.87-6.34,11.2-.21.35-1.42.27-1.91.77-.82.83-2.9,6.05-4.05,7.58-2.06,2.74-5.85,6.01-8.18,8.94-4.23,5.34-7.64,11.29-12.92,15.38-6.04,4.69-10.26,8.81-17.82,10.76-.44.11-.31.95-.7,1.05-1.5.38-10.79-1.98-12.23-2.97-.33-.22-.53-.53-.72-.84s-.37-.63-.64-.88c-.06-.06-.15-.09-.27-.11-.33-.06-.81-.01-1.01-.19-.86-.81-4.45-7.86-5.73-9.71-3.78-5.45-8.33-10.77-11.73-16.74-3.97-6.97-6.99-15.37-10.44-22.69-.5-1.07-.95-2.25-1.39-3.42-.3-.79-.6-1.57-.92-2.34-.32-.76-.67-1.5-1.06-2.19-.19-.34-.4-.67-.62-.98-1.73-.24-3.54-.47-5.27-.6-9.37-.74-20.5-.44-29.58.38-1.39.12-2.71.72-4.06,1.23-.81.3-1.63.58-2.49.7-.67.1-1.33.15-1.99.16-.69.02-1.38-.01-2.06-.08-.62-.06-1.23-.14-1.84-.26-.64-.12-1.28-.27-1.91-.45-.63-.18-1.26-.38-1.88-.6-.94-.33-1.86-.72-2.78-1.13-.91-.41-1.82-.86-2.71-1.33-9.14-4.77-14.94-7.94-23.03-14.54-8.95-7.3-22.81-11.73-33.02-16.56-6.14-2.9-11.98-6.58-18.15-9.42-.46,0-5.8,5.45-6.42,6.23-.54.68-1.7,2.39-2.76,4.1-.26.43-.52.86-.76,1.27-.72,1.24-1.28,2.34-1.37,2.87-.49,2.98,1.13,2.46,2.28,3.82,1.89,2.24,6.22,9.31,6.96,11.91.67,2.34.06,5.83-1.04,7.86-2.01,3.71-6.53,7.16-8.69,10.13-.68.94-1.04,1.68-1.25,2.38-.14.46-.21.9-.27,1.36-.09.69-.14,1.44-.33,2.38-.09.46-1.07.39-1.06.65,0,.53,3.02,5.76,3.68,6.42.66.66,1.36,1.34,2.1,2.03s1.51,1.4,2.32,2.09c.4.35.81.7,1.23,1.04,1.25,1.04,2.55,2.05,3.9,3,.9.63,1.81,1.23,2.73,1.78.46.28.92.54,1.39.79,2.32,1.26,4.69,2.19,6.99,2.59.96.16,1.23-.47,1.14,1.08.54.13,1.22.37,1.99.67.25.1.52.21.79.32.54.22,1.11.47,1.7.72.88.38,1.78.77,2.66,1.14,2.05.85,3.95,1.54,5.01,1.48.27-.02,1.21-1.59,1.11.54h0c1,.13,1.89.29,2.73.46,3.6.75,5.96,1.82,9.58,2.83,10.51,2.95,21.55,4.77,32.56,6.4,2.45.36,4.89.71,7.33,1.07,6.09.88,12.13,1.77,18.03,2.82,2.74.49,5.61,1.19,8.54,1.98,2.93.79,5.91,1.67,8.89,2.51,5.95,1.68,11.87,3.2,17.21,3.56,1.54.1,4.18-.1,6.93-.09.46,0,.92,0,1.38.03.23,0,.46.02.69.03.46.02.91.06,1.36.11,2.23.23,4.26.76,5.53,1.88.63.56,1.07,1.27,1.25,2.16.45,2.24.48,4.16.15,5.79-.33,1.63-1.03,2.97-2.05,4.04-.51.53-1.1,1-1.76,1.4s-1.4.73-2.2,1c-.8.27-1.67.48-2.61.63-.93.15-1.93.23-2.98.26-4.53.13-18.7-1.33-23.27-2.27-6.16-1.26-13.6-4.28-20.02-5.61-16.35-3.37-33.02-5.19-49.38-7.86-5.85-.96-11.6-3.9-17.44-4.72.13,1.26.12,2.5-.15,3.72-.21.96-.45,1.92-.72,2.87-.53,1.9-1.15,3.79-1.81,5.69-.66,1.9-1.36,3.81-2.04,5.75-1.02,2.91-2.01,5.9-2.79,9.05-4.66,18.98-9.59,41.41-10.88,61.16-.08,1.25-.09,2.55-.05,3.89h53.27c-.05-4.56-.15-9.3,1.03-13.53ZM243.89,354.31c.07-.37.81-.34.98-.8.55-1.49,1.69-4.74,2.93-5.86.18-.17,4.17-2.28,4.43-2.28.98,0,5.61,2.35,6.2,3.18.63.9,1.96,6.69,1.81,7.81-.25,1.83-1.86,1.31-2.46,2.06-.32.4-.05,1.21-.9,1.96-2.11,1.83-8.25,4.25-10.67,1.66-1.02-1.1-2.56-6.31-2.31-7.72ZM189.59,360.21c.38-.65,1.29-.91,1.71-1.46.57-.77,1.05-2.28,1.69-2.64.95-.53,5.65-.91,6.48-.44.26.15.51,1.14.96,1.54,2.21,1.97,2.39,1.5,2.76,5.09.42,4.04.33,3.48-1.57,6.27-.4.59-.55,1.81-.84,2.02-.16.12-3.37,1.47-3.58,1.53-.76.22-6.57-.59-6.97-.99-.19-.19-1.84-4.64-1.85-4.92-.03-.65.92-5.49,1.22-6Z"/>
    <path class="cls-1" d="M127.59,409.08c.72-.72,1.35-1.44,1.82-2.17.43-.68.75-1.45.97-2.29-.22.84-.54,1.62-.97,2.29-.46.73-1.1,1.45-1.82,2.17Z"/>
    <path class="cls-1" d="M121.85,414.43c.32-.36.67-.72,1.04-1.07-.37.36-.72.71-1.04,1.07Z"/>
    <path class="cls-1" d="M293.34,319.27c-.99.74-2.02,1.43-3.15,2.07,1.13-.64,2.16-1.32,3.15-2.07Z"/>
    <path class="cls-1" d="M62.3,353.55c.68-1.94,1.38-3.85,2.04-5.75-.66,1.9-1.36,3.81-2.04,5.75Z"/>
    <path class="cls-1" d="M130.56,403.77c.15-.88.2-1.8.17-2.74.03.94-.02,1.86-.17,2.74Z"/>
    <path class="cls-1" d="M95.83,374.81c0,1.1.16,2.16.46,3.09.05.15.24.38.53.66-.29-.28-.48-.5-.53-.66-.3-.93-.45-1.99-.46-3.09Z"/>
    <path class="cls-1" d="M28.94,290.75c.19-.95.25-1.69.33-2.38-.09.69-.14,1.44-.33,2.38Z"/>
    <path class="cls-1" d="M64.34,347.8c.66-1.9,1.28-3.79,1.81-5.69-.53,1.9-1.15,3.79-1.81,5.69Z"/>
    <path class="cls-1" d="M119.51,278.29c.91.41,1.84.8,2.78,1.13-.94-.33-1.86-.72-2.78-1.13Z"/>
    <path class="cls-1" d="M29.27,288.37c.06-.46.13-.9.27-1.36-.14.46-.21.9-.27,1.36Z"/>
    <path class="cls-1" d="M173.99,279.92c.39.68.73,1.42,1.06,2.19-.32-.76-.67-1.5-1.06-2.19Z"/>
    <path class="cls-1" d="M175.05,282.1c.32.76.62,1.55.92,2.34-.3-.79-.6-1.57-.92-2.34Z"/>
    <path class="cls-1" d="M126.08,280.47c.61.11,1.22.2,1.84.26-.62-.06-1.23-.14-1.84-.26Z"/>
    <path class="cls-1" d="M110.04,402.09c-.35-.03-.71-.08-1.04-.19.33.11.69.16,1.04.19Z"/>
    <path class="cls-1" d="M124.05,412.29c-.4.36-.79.71-1.16,1.07.37-.36.76-.71,1.16-1.07Z"/>
    <path class="cls-1" d="M126.64,385.87c-.1.15-.18.26-.23.33.05-.07.13-.18.23-.33Z"/>
    <path class="cls-1" d="M127.62,384.34c-.15.24-.29.47-.43.69.14-.22.29-.45.43-.69Z"/>
    <path class="cls-1" d="M66.59,317.11h0c1,.13,1.89.29,2.73.46-.83-.17-1.73-.33-2.73-.46h0Z"/>
    <path class="cls-1" d="M127.04,409.62c-.38.36-.77.71-1.18,1.07.4-.36.8-.71,1.18-1.07Z"/>
    <path class="cls-1" d="M207.18,338.19c-.19-.31-.37-.63-.64-.88-.06-.06-.15-.09-.27-.11.11.02.2.05.27.11.27.25.45.57.64.88Z"/>
    <path class="cls-1" d="M131.97,280.64c.85-.12,1.68-.4,2.49-.7-.81.3-1.63.58-2.49.7-.67.1-1.33.15-1.99.16.66-.02,1.32-.07,1.99-.16Z"/>
    <path class="cls-1" d="M110.55,402.12c-.17,0-.34-.01-.51-.03.17.01.35.02.51.03.03.21.05.41.05.6,0-.19-.02-.39-.05-.6Z"/>
    <path class="cls-1" d="M334.41,415.77c-14.33-23.75-21.5-49.92-29.2-76.04-.67-2.27-2.1-4.39-2.38-6.92-.93-.04-1.91-.02-2.68.54-.57.42-1.43,2.26-2.01,2.98-.82,1-2.48,1.17-2.57,2.72-.16,2.85,2.3,2.39,2.32,2.7.1,1.67-.35,4.12-.27,5.92.55,12.95-.49,25.61.47,38.4.77,10.25,1.96,20.83,2.19,31.4.49,3.4.98,6.79,1.47,10.17h40.16c-2.53-3.91-5.07-7.84-7.51-11.88Z"/>
    <path class="cls-3" d="M65.48,316.57c.08.27.25.39.45.45s.44.06.66.09c.1-2.13-.84-.56-1.11-.54Z"/>
    <path class="cls-3" d="M65.93,317.02c.2.06.44.06.66.09h0c-.23-.03-.46-.03-.66-.09Z"/>
    <path class="cls-3" d="M53.35,312.24c.09-1.55-.18-.92-1.14-1.08-.01.2-.02.37-.02.5,0,.41.08.54.22.57.1.02.22,0,.38-.02s.34-.02.56.03Z"/>
    <path class="cls-12" d="M331.67,253.41c3.2-.45,6.42-.95,9.65-1.56,3.56-.67,2.73-.87,5.24-1.81,1.58-.6,3.64-.29,5.05-.76.38-.13.79-.28,1.24-.45.89-.34,1.9-.77,2.99-1.27.54-.25,1.11-.51,1.69-.79.58-.28,1.17-.58,1.78-.88.6-.31,1.22-.63,1.84-.96.93-.5,1.87-1.02,2.8-1.56,1.24-.72,2.48-1.46,3.66-2.22.3-.19.59-.38.88-.57.58-.38,1.14-.76,1.68-1.15,2.71-1.91,4.91-3.81,5.98-5.42.27-.4.45-.79.59-1.17s.23-.74.3-1.09c.04-.17.07-.35.1-.51.1-.5.21-.97.42-1.41,3.56-7.07,5.4-13.12,6.52-19.4.42-2.36.74-4.75,1.01-7.24.09-.83.17-1.67.26-2.53.16-1.71.31-3.48.46-5.31.15-1.84.3-3.75.47-5.76,2.46-28.91,3.4-58.18,5.73-87.11.26-3.19.43-6.27.54-9.31.15-4.55.15-9,0-13.53-.15-4.53-.43-9.14-.82-14.01-.03-.38-.08-.97-.13-1.66-.17-2.07-.47-5.03-.84-5.79-.04-.08-.24-.19-.54-.35-.22-.12-.5-.27-.8-.45-.1-.06-.2-.13-.31-.2-.21-.14-.43-.31-.65-.49-.33-.28-.65-.61-.95-1-.3-.39-.57-.85-.78-1.38-1.12-2.78.15-3.8-.37-5.85-.09-.34-3.42-5.91-3.66-6.18-1.31-1.47-4.48-2.97-7.18-4.09-.49-.2-.97-.39-1.42-.57-.67-.26-1.28-.49-1.77-.68-.73-.27-1.47-.53-2.21-.78-1.48-.5-2.98-.94-4.48-1.35-1.51-.41-3.03-.77-4.56-1.09-.76-.16-1.53-.32-2.3-.46-1.54-.29-3.08-.55-4.63-.78-6.19-.92-12.45-1.42-18.55-1.88-1.93-.15-3.76-1.46-5.09-1.54-4.56-.27-12.16.69-17.31.61-20.06-.3-40.49-1.1-60.2-1.57-14.89-.35-32.98.85-47.91,2.16-22.8,2.01-40.82,13.49-61.05,21.19-6.87,2.62-13.75,5.14-20.62,7.63-3.44,1.25-6.87,2.49-10.3,3.73-6.86,2.49-13.7,4.99-20.5,7.57-3.4,1.29-6.79,2.61-10.17,3.95-5.07,2.02-10.11,4.1-15.12,6.29-1.67.73-3.34,1.47-5,2.22-2.49,1.12-5.1,2.29-7.7,3.5-4.33,2.01-8.63,4.13-12.24,6.35-.64.4-1.58.81-2.55,1.16-.73.26-1.47.48-2.13.64-.22.05-.43.1-.62.13-.15,1.42,1.7,1.8,2.2,3.1,2.36,6.12.88,12.29.61,18.35-1.19,27.1-2.22,54.16-4.91,80.73-.12,1.19.14,2.43-.06,3.54-.35,1.97-2.45,3.61-1.64,5.96.6,1.73,11.39,9.4,12.96,12.05,14.28,10.4,31.7,15.31,47.19,23.31,7.59,3.92,14.09,10.87,21.44,15.07,1.5.86,12.87,6.72,13.61,6.82,1.54.21,5.56-.96,7.5-.99,2.58-.05,5.88.81,8.73.48,1.17-.13.54-1.35.98-1.13,1.22.62,1.51.73,1.75.7.09-.01.18-.04.31-.08.17-.04.42-.09.85-.09.11,0,.23,0,.36,0,.05,0,.1,0,.16,0,3.16.13,6.36.19,9.57.24,3.26.05,6.55.1,9.83.2,11.14.34,22.55.53,34.01.05,15.31-.64,33.29-1.42,47.51-2.77,17.72-1.69,34.88-.45,52.89-3.14,4.81-.72,9.6-1.29,14.38-1.84,4.78-.56,9.56-1.1,14.37-1.77ZM116.93,92.55c-.18,2.74-2.46,8.62-3.31,11.79-3.5,12.88-6.67,28.74-8.74,42.11-2.92,18.87,1.19,39.21,1.78,58.32.07,2.23.99,3.72.78,6.35-.09,1.13-3.36,9.72-3.81,10.01-.44.28-1.3.15-1.94.45-.65.31-.82,1.1-1.89,1.31-1.83.37-5.59.09-7.3-.87-.14-.08-2.18-2.03-2.23-2.17-.44-1.19-.08-2.85-.37-4.2-1.6-7.67-.3-14.78-1.1-22.22-1.55-14.45-4.12-29.2-1.61-43.74,1.04-6.04,2.45-12.16,3.47-18.31.78-4.69,3.28-9.9,1.7-14.59,2.4.73,1.57-2.92,2.06-4.99,1.71-7.24,4.06-15.15,6.68-21.97.23-.61-.11-1.52.12-2.18,4.26-1.79,7.27-5.26,11.91-1.64.37.29,2.82,2.52,3.04,2.78.95,1.1.86,2.45.77,3.76ZM271.08,238.08c-8.65.84-15.91,3.21-24.64,2.88-4.72-.18-15.59,1.65-21,2.2-29.09,2.93-50.08,5.58-79.78-.09-3.94-.75-6.33-.17-10.08-3.07-1.64-1.26-5.61-7.08-6.16-8.97-.41-1.4.32-2.63.13-4.03-.31-2.28-1.35-5.4-1.5-7.61-.18-2.54.8-7.33.52-9.78-4.39-37.57,2.89-80.53,12.04-116.66,2.01-7.91,9.42-24.22,16.71-28.36,3.47-1.97,17.71-7.52,21.56-8.31,10.02-2.08,22.27-4.92,32.49-5.39,1.28-.06,3.27.84,4.89.4.33-.09,3.7-3.84,5.07-4.55,5.54-2.88,18.22-2.55,24.99-2.38,5.44.13,11.87,1.59,17.3,1.32,1.97-.1,4.3-1.33,6.02-1.38,9.98-.31,22.32.02,32.44.5,1.32.06,6.06,1.29,6.69.94.17-.09-.11-.97.87-1.02,1.35-.06,3.74,1.25,5.76,1.44,8.09.76,17.66,3.3,25.94,5.18,8.73,1.98,20.53,6.46,28.89,11.49,2.66,1.6,9.79,8.65,11.29,11.79.37.79,2.84,7.39,2.89,7.81,1.66,12.3-.53,30.4-1.65,43.15-.88,10.04-1.95,20.34-3.19,30.4-.97,7.83-2.42,15.98-4.17,23.81-3.77,16.85-8.1,30.48-19.11,43.05-18.55,21.19-59.02,12.66-85.19,15.21Z"/>
    <path class="cls-12" d="M374.08,37.6c-.67-.26-1.28-.49-1.77-.68-.73-.27-1.47-.53-2.21-.78.74.25,1.48.51,2.21.78.5.19,1.1.41,1.77.68Z"/>
    <path class="cls-12" d="M392.52,79.64c-.15-4.53-.43-9.14-.82-14.01-.03-.38-.08-.97-.13-1.66.06.69.1,1.28.13,1.66.39,4.88.68,9.49.82,14.01Z"/>
    <path class="cls-12" d="M331.67,253.41c-4.8.67-9.58,1.22-14.37,1.77,4.78-.56,9.56-1.1,14.37-1.77Z"/>
    <path class="cls-12" d="M148.59,262.43c.11,0,.23,0,.36,0,.05,0,.1,0,.16,0-.05,0-.1,0-.16,0-.13,0-.25,0-.36,0Z"/>
    <path class="cls-12" d="M377.01,231.75c-.07.35-.16.71-.3,1.09.14-.38.23-.74.3-1.09Z"/>
    <path class="cls-12" d="M67.3,80.61c-1.67.73-3.34,1.47-5,2.22-2.49,1.12-5.1,2.29-7.7,3.5,2.6-1.21,5.21-2.37,7.7-3.5,1.66-.75,3.33-1.49,5-2.22Z"/>
    <path class="cls-12" d="M377.54,229.83c-.22.43-.32.9-.42,1.41.1-.5.21-.97.42-1.41Z"/>
    <path class="cls-12" d="M82.42,74.32c3.38-1.34,6.77-2.66,10.17-3.95-3.4,1.29-6.79,2.61-10.17,3.95Z"/>
    <path class="cls-12" d="M361.06,33.7c1.53.33,3.05.69,4.56,1.09-1.51-.41-3.03-.77-4.56-1.09Z"/>
    <path class="cls-12" d="M354.12,32.46c1.55.23,3.09.49,4.63.78-1.54-.29-3.08-.55-4.63-.78Z"/>
    <path class="cls-12" d="M67.3,80.61c5.01-2.19,10.05-4.27,15.12-6.29-5.07,2.02-10.11,4.1-15.12,6.29Z"/>
    <path class="cls-12" d="M37.69,94.47c.66-.15,1.4-.38,2.13-.64-.73.26-1.47.48-2.13.64Z"/>
    <path class="cls-12" d="M39.82,93.83c.97-.35,1.9-.76,2.55-1.16-.64.4-1.58.81-2.55,1.16Z"/>
    <path class="cls-12" d="M113.09,62.79c3.43-1.24,6.86-2.48,10.3-3.73-3.44,1.25-6.87,2.49-10.3,3.73Z"/>
    <path class="cls-12" d="M385.07,203.19c-.27,2.49-.59,4.88-1.01,7.24.42-2.36.74-4.75,1.01-7.24Z"/>
    <path class="cls-12" d="M392.52,93.16c-.1,3.04-.28,6.12-.54,9.31.26-3.19.43-6.27.54-9.31Z"/>
    <path class="cls-12" d="M374.08,37.6c.45.17.92.37,1.42.57-.49-.2-.97-.39-1.42-.57Z"/>
    <path class="cls-12" d="M365.61,34.79c1.51.41,3,.85,4.48,1.35-1.48-.5-2.98-.94-4.48-1.35Z"/>
    <path class="cls-12" d="M385.78,195.35c-.15,1.84-.3,3.6-.46,5.31.16-1.71.31-3.48.46-5.31Z"/>
    <path class="cls-11" d="M196.7,287.71c.76,1.75,1.48,3.51,2.22,5.26,1.11,2.63,2.25,5.24,3.59,7.76,2.05,3.83,5.31,8.37,7.78,11.93,2.73,3.93,5.72,7.59,8.49,11.49,1.38,1.25,2.67.41,3.91-.36,9.83-6.12,18.68-19.88,24.87-29.37,1.12-1.73,3.84-4.44,4.5-6.02.37-.89-.02-1.97.28-2.56.14-.29,2.74-3.35,3.72-4.95,1.2-1.96,3.37-3.78,3.13-6.54l-66.27,5.69c1.46,2.47,2.67,5.06,3.8,7.68Z"/>
    <path class="cls-4" d="M313.23,314.4c1.11.38,3.79-.91,2.59-2.16-.16-.17-3.81.43-2.59,2.16Z"/>
    <path class="cls-4" d="M204.95,386.13c.16-7.56-1.89-14.45-10.81-12.07-.28,2.14-1.89,3.55-2.63,5.48-2.09,5.45-.59,9.7-.72,15.26-.17,7.46-1.56,16.28-1.94,23.87-.15,2.94-.2,5.95-.22,8.98h14.02c.95-13.89,2.02-27.78,2.31-41.52Z"/>
    <path class="cls-4" d="M253.73,419.17c-.34-7.9-.39-16-.66-23.84-.13-3.91-.67-11.55-5.05-13.52-5.84-2.64-7.6,9.48-8.01,12.95-1.16,9.81-.92,21.43-.48,32.89h14.68c-.18-2.81-.36-5.62-.48-8.48Z"/>
    <path class="cls-4" d="M256.88,360.37c.85-.74.58-1.56.9-1.96.6-.75,2.22-.23,2.46-2.06.15-1.12-1.18-6.91-1.81-7.81-.58-.83-5.22-3.17-6.2-3.18-.25,0-4.24,2.11-4.43,2.28-1.24,1.12-2.38,4.37-2.93,5.86-.17.46-.92.43-.98.8-.25,1.41,1.28,6.62,2.31,7.72,2.43,2.6,8.57.17,10.67-1.66Z"/>
    <path class="cls-4" d="M197.2,372.12c.2-.06,3.42-1.42,3.58-1.53.3-.21.44-1.43.84-2.02,1.9-2.79,1.99-2.23,1.57-6.27-.37-3.59-.56-3.12-2.76-5.09-.45-.4-.7-1.39-.96-1.54-.83-.48-5.54-.09-6.48.44-.64.36-1.12,1.88-1.69,2.64-.41.55-1.33.81-1.71,1.46-.3.51-1.24,5.35-1.22,6,.01.28,1.66,4.73,1.85,4.92.41.4,6.21,1.21,6.97.99Z"/>
    <path class="cls-3" d="M356.28,222.86c11.01-12.57,15.34-26.2,19.11-43.05,1.75-7.83,3.2-15.98,4.17-23.81,1.25-10.06,2.31-20.37,3.19-30.4,1.12-12.75,3.31-30.85,1.65-43.15-.06-.42-2.52-7.03-2.89-7.81-1.49-3.14-8.63-10.19-11.29-11.79-8.36-5.04-20.16-9.52-28.89-11.49-8.28-1.88-17.85-4.42-25.94-5.18-2.02-.19-4.41-1.5-5.76-1.44-.98.05-.7.92-.87,1.02-.63.35-5.37-.88-6.69-.94-10.13-.49-22.46-.81-32.44-.5-1.72.05-4.04,1.28-6.02,1.38-5.42.27-11.86-1.19-17.3-1.32-6.77-.16-19.45-.5-24.99,2.38-1.37.71-4.74,4.46-5.07,4.55-1.62.45-3.61-.46-4.89-.4-10.23.47-22.47,3.31-32.49,5.39-3.85.8-18.09,6.34-21.56,8.31-7.29,4.14-14.7,20.45-16.71,28.36-9.16,36.13-16.43,79.1-12.04,116.66.29,2.45-.69,7.24-.52,9.78.15,2.21,1.19,5.32,1.5,7.61.19,1.41-.54,2.64-.13,4.03.56,1.89,4.52,7.71,6.16,8.97,3.76,2.89,6.14,2.31,10.08,3.07,29.71,5.66,50.69,3.02,79.78.09,5.41-.55,16.28-2.38,21-2.2,8.74.33,15.99-2.04,24.64-2.88,26.18-2.55,66.64,5.98,85.19-15.21ZM351.83,201.4c-.59,1.03-.98,4.24-1.99,5.95-.72,1.22-7.42,9.37-8.31,9.99-1.2.84-8.05,3.53-9.77,3.82-3.91.67-8.58-.23-11.72.14-1.5.17-3.46,1.51-5.44,1.56-1.66.04-4.48-.97-6.06-.88-12.65.73-25.94.74-38.77,1.99-19.73,1.93-39.45,4.23-59.19,5.98-12.08,1.07-24.29,1.92-36.21,1.1-8.38-.58-16.09-.04-23.57-3.79-3.78-1.9-4.56-2.18-5.32-6.84-1.08-6.68-.31-12.93-.52-19.4-.27-8.26-.49-16.86-1.27-24.96-.02-.26.91-.17.99-.59.43-2.44.12-9.9.34-13.49,1.25-20.8,5.62-51.75,12.18-71.24,4.71-13.99,15.28-18.13,28.53-22.27,8.54-2.67,17.63-3.82,26.42-4.73,4.93-.51,20.86-.49,23.91-3.53.55-.55.34-1.51.58-1.74.68-.65,10.25-.19,12.05-.12,30.7,1.15,65.61-3.35,95.2,8.35,5.04,1.99,15.13,5.83,18.65,10.3.6.76.4,1.71.79,2.3.24.37,1.21.48,1.68,1.35,1.99,3.7,1.8,9.19,2.14,13.17,1.27,14.57-.57,29.77-2.07,44.29-1.61,15.6-3.93,29.97-6.6,45.17-.9,5.13-1.45,10.69-3.79,15.43-.8,1.61-2.52,2.17-2.83,2.71Z"/>
    <path class="cls-3" d="M113.12,86.02c-4.64-3.62-7.65-.15-11.91,1.64-.22.66.12,1.57-.12,2.18-2.61,6.82-4.97,14.73-6.68,21.97-.49,2.07.34,5.72-2.06,4.99,1.58,4.69-.92,9.89-1.7,14.59-1.02,6.15-2.43,12.27-3.47,18.31-2.51,14.54.06,29.29,1.61,43.74.8,7.44-.5,14.56,1.1,22.22.28,1.36-.07,3.01.37,4.2.05.14,2.1,2.1,2.23,2.17,1.71.96,5.47,1.24,7.3.87,1.06-.22,1.24-1,1.89-1.31.63-.3,1.5-.17,1.94-.45.46-.29,3.72-8.88,3.81-10.01.21-2.63-.71-4.12-.78-6.35-.59-19.12-4.7-39.45-1.78-58.32,2.07-13.37,5.24-29.22,8.74-42.11.86-3.16,3.14-9.05,3.31-11.79.08-1.31.18-2.65-.77-3.76-.22-.26-2.67-2.49-3.04-2.78Z"/>
    <path class="cls-8" d="M358.45,183.26c2.67-15.2,5-29.56,6.6-45.17,1.5-14.52,3.34-29.72,2.07-44.29-.35-3.98-.15-9.47-2.14-13.17-.47-.87-1.44-.99-1.68-1.35-.38-.6-.19-1.54-.79-2.3-3.51-4.48-13.61-8.31-18.65-10.3-29.6-11.7-64.5-7.2-95.2-8.35-1.8-.07-11.37-.53-12.05.12-.24.23-.03,1.19-.58,1.74-3.05,3.04-18.98,3.02-23.91,3.53-8.78.91-17.87,2.06-26.42,4.73-13.25,4.13-23.82,8.28-28.53,22.27-6.56,19.5-10.93,50.44-12.18,71.24-.22,3.59.1,11.05-.34,13.49-.07.42-1.01.34-.99.59.77,8.11,1,16.7,1.27,24.96.21,6.46-.56,12.72.52,19.4.76,4.66,1.54,4.95,5.32,6.84,7.48,3.75,15.19,3.21,23.57,3.79,11.92.82,24.13-.03,36.21-1.1,19.75-1.74,39.47-4.04,59.19-5.98,12.83-1.26,26.12-1.27,38.77-1.99,1.57-.09,4.4.92,6.06.88,1.99-.05,3.94-1.39,5.44-1.56,3.14-.36,7.81.53,11.72-.14,1.72-.3,8.57-2.98,9.77-3.82.89-.62,7.59-8.77,8.31-9.99,1.01-1.7,1.4-4.91,1.99-5.95.31-.54,2.03-1.09,2.83-2.71,2.34-4.74,2.89-10.3,3.79-15.43ZM307.18,146.25c2,1.68,4.48,3.5,6.12,5.54,2.45,3.05,4.99,9.49,5.06,13.38.08,4.28-5.39,13.7-8.03,17.1-1.24,1.6-7.98,8.82-9.32,9.8-3.79,2.77-17.05,9.35-21.66,10.66-1.27.36-2.8-.14-3.9.41-.79.4-.83,1.72-1.05,1.86-.29.2-1.19-.45-1.75-.35-.67.12-1.18,1.04-1.9,1.24-9.48,2.55-14.93,2.68-24.67.85-3.82-.72-7.1-1.61-10.71-2.41-6.11-1.35-14.14-1.96-19.59-5.03-2.04-1.15-4.4-3.91-6.41-4.66-2.25-.84-6.36-1.13-8.16-3.38-2.58-3.22-2.47-9.19-2.25-12.97,1.28-21.31,4.32-38.74,2.75-60.7-.27-3.81-2.69-9.77.7-12.67.93-.8,2.26-.74,2.76-1.24,2.03-2.06.85-3.49,5.16-4.61,17.78-4.64,36.89-7.54,55.67-9.33,14.05-1.34,31.13,1.15,42.33,11.01.79.69,2.06,3,2.69,3.44.69.48,2.14.37,2.49.81.28.36.22,1.68.64,2.45,1,1.82,3.67,5.4,4.14,7.07.75,2.65.13,8.89-.59,11.51-2.02,7.43-9.64,11.94-13.96,17.84,2.1-.28,2.29,1.43,3.42,2.39Z"/>
    <path class="cls-9" d="M317.72,126.02c.71-2.62,1.33-8.87.59-11.51-.47-1.67-3.14-5.25-4.14-7.07-.42-.76-.36-2.09-.64-2.45-.35-.44-1.8-.34-2.49-.81-.63-.43-1.9-2.74-2.69-3.44-11.2-9.86-28.28-12.34-42.33-11.01-18.78,1.79-37.88,4.69-55.67,9.33-4.31,1.13-3.13,2.55-5.16,4.61-.5.5-1.82.44-2.76,1.24-3.39,2.9-.97,8.86-.7,12.67,1.57,21.96-1.48,39.39-2.75,60.7-.23,3.78-.33,9.75,2.25,12.97,1.8,2.25,5.92,2.54,8.16,3.38,2.01.75,4.37,3.52,6.41,4.66,5.45,3.07,13.48,3.68,19.59,5.03,3.61.8,6.89,1.69,10.71,2.41,9.74,1.83,15.19,1.69,24.67-.85.71-.19,1.23-1.12,1.9-1.24.56-.1,1.45.55,1.75.35.22-.15.26-1.47,1.05-1.86,1.1-.55,2.63-.05,3.9-.41,4.6-1.31,17.86-7.89,21.66-10.66,1.34-.98,8.08-8.2,9.32-9.8,2.64-3.41,8.1-12.83,8.03-17.1-.07-3.89-2.61-10.33-5.06-13.38-1.64-2.05-4.12-3.86-6.12-5.54-1.13-.95-1.33-2.67-3.42-2.39,4.32-5.9,11.94-10.41,13.96-17.84ZM272.13,146.77c.19,1.27,2.9,4.56,4.04,5.36,6.14,4.34,12.22,1.16,18.58,3.24.83.27,1.33,1.26,1.94,1.41.82.19,1.64-.56,2.48-.38.25.05,3.64,3.28,3.74,3.52.77,1.99-2.11,6.4-3.29,8.04-3.52,4.89-9.82,10.54-15.05,13.47-10.61,5.94-27.8,11.68-40.69,9.37-3.53-.63-7.44-2.49-10.66-2.93-1.4-.19-2.61,1.05-4.71-.16-2.4-1.37-.72-.39-3.25-.65-1.38-.14-8.96-3.12-9.55-4.22-1.51-2.8.45-8.25.72-11.15,1.15-12.18,1.11-24.6,1.9-36.77l-1.57-21.29c.56-.29,1.18-.52,1.83-.57,7.61-.54,15.91-3.88,24.08-4.43,1.3-.09,2.5.62,3.23.59.15,0,.25-1.09,2.38-1.36,13.29-1.72,28.49-4.04,41.85-1.29,4.77.98,12.33,4.82,13.3,10.01.38,2.03-1.19,3.84-2.12,5.39-3.36,5.57-11.97,10.93-18,13.5-2.84,1.21-9.32,1.8-10.31,5.12-.15.52-.9,5.83-.85,6.18Z"/>
    <path class="cls-7" d="M283.28,135.47c6.03-2.56,14.64-7.93,18-13.5.94-1.55,2.5-3.36,2.12-5.39-.97-5.19-8.53-9.03-13.3-10.01-13.35-2.75-28.56-.43-41.85,1.29-2.14.28-2.23,1.36-2.38,1.36-.72.03-1.93-.68-3.23-.59-8.17.55-16.47,3.89-24.08,4.43-.65.05-1.27.28-1.83.57l1.57,21.29c-.8,12.17-.76,24.6-1.9,36.77-.27,2.91-2.23,8.35-.72,11.15.59,1.1,8.17,4.07,9.55,4.22,2.53.26.86-.72,3.25.65,2.1,1.2,3.31-.03,4.71.16,3.22.44,7.14,2.3,10.66,2.93,12.9,2.31,30.09-3.43,40.69-9.37,5.23-2.93,11.53-8.58,15.05-13.47,1.18-1.65,4.07-6.05,3.29-8.04-.09-.24-3.49-3.46-3.74-3.52-.83-.18-1.66.58-2.48.38-.61-.14-1.11-1.14-1.94-1.41-6.36-2.08-12.44,1.1-18.58-3.24-1.14-.81-3.85-4.09-4.04-5.36-.05-.35.69-5.66.85-6.18.99-3.33,7.47-3.91,10.31-5.12ZM239.97,122.59c.95-3.87,9.29-1.98,11.87-2.04,4.11-.1,6.65-3.37,10.92.03,2.01,1.6,4.99,7.44,5.06,9.97.08,2.67-2.48,6.42-5.27,6.31-4.92-.19-9.89,1.14-14.72.91-.2,0-3.69-.97-3.87-1.07-.36-.19-1.31-2.21-1.87-2.73-.61-.57-1.65-.46-1.98-.9-.74-.98-.53-8.94-.15-10.48ZM266.8,178.45c-4.62,2.62-11.96,3.05-17.56,3.88-.93.14-1.37,1.04-2.61,1.04-1.97,0-4.92-1.68-6.43-2.99-.64-.56-.58-1.57-1.27-2.12-.36-.29-1.23-.15-1.48-.4-.22-.22-.89-3.33-.86-3.9.02-.42.89-4.67,1.05-5.22.29-1.01,2.06-2.44,3.01-2.79,3.19-1.2,10.05-1.35,13.84-2.28,1.89-.46,2.63-2.19,3.46-2.39.64-.15,4.22.25,4.88.65,1.71,1.05,5.93,5.97,6.44,7.77.89,3.18.52,7.06-2.47,8.76Z"/>
    <path class="cls-9" d="M262.84,161.93c-.66-.4-4.24-.8-4.88-.65-.83.2-1.57,1.93-3.46,2.39-3.79.93-10.65,1.08-13.84,2.28-.95.36-2.73,1.79-3.01,2.79-.16.55-1.03,4.8-1.05,5.22-.03.57.65,3.68.86,3.9.25.26,1.12.12,1.48.4.69.55.63,1.56,1.27,2.12,1.51,1.32,4.46,3,6.43,2.99,1.24,0,1.67-.9,2.61-1.04,5.6-.83,12.94-1.26,17.56-3.88,2.99-1.7,3.36-5.58,2.47-8.76-.51-1.8-4.72-6.72-6.44-7.77Z"/>
    <path class="cls-9" d="M242.1,133.97c.56.52,1.51,2.53,1.87,2.73.18.1,3.67,1.06,3.87,1.07,4.82.23,9.8-1.1,14.72-.91,2.79.11,5.34-3.64,5.27-6.31-.07-2.52-3.05-8.36-5.06-9.97-4.27-3.4-6.81-.13-10.92-.03-2.58.06-10.92-1.82-11.87,2.04-.38,1.54-.59,9.5.15,10.48.33.44,1.37.33,1.98.9Z"/>
  </g>
  <text class="cls-6" transform="translate(310.84 406.85) scale(1.25 1)"><tspan x="0" y="0">0.0</tspan><tspan class="cls-10" x="58.75" y="0">.</tspan><tspan class="cls-5" x="65.23" y="0">1</tspan></text>
</svg>